{"title":"Das Blaue Licht (1932) Leni Riefenstahl Ger (Eng subs)","uid":5353229,"size":591203202,"categoryP":"video","categoryS":"movies","magnet":"?xt=urn:btih:a4c3e33147d674872ad930655dd4aad305613a56&amp;dn=Das+Blaue+Licht+%281932%29+Leni+Riefenstahl+Ger+%28Eng+subs%29&amp;tr=udp%3A%2F%2Ftracker.openbittorrent.com%3A80&amp;tr=udp%3A%2F%2Fopen.demonii.com%3A1337&amp;tr=udp%3A%2F%2Ftracker.coppersurfer.tk%3A6969&amp;tr=udp%3A%2F%2Fexodus.desync.com%3A6969","seeders":6,"leechers":0,"uploader":"johnefp","files":-1,"time":1265849197,"description":"The Blue Light (Das Blaue Licht) is widely regarded as the best of the German &quot;mountain&quot; films of the early 1930s. Leni Riefenstahl both directed and starred in this film, playing a free-spirited gamine who dares to climb a precipitous mountain peak. Because she is the only member of her community to accomplish this, she is regarded as something of a witch. When she discovers a hidden crystal cave, the villagers change their tune and follow her up the mountain, stripping the cave of its riches. She responds to this symbolic rape by killing herself. It was The Blue Light which impressed Hitler and Goebbels enough to engage Leni Riefenstahl to direct the Nazi party's subsequent propaganda films. \n\n\n &lt;a href=&quot;\nhttp://www.imdb.com/title/tt0022694/&quot; rel=&quot;nofollow&quot; target=&quot;_NEW&quot;&gt;\nhttp://www.imdb.com/title/tt0022694/&lt;/a&gt;\n\n &lt;a href=&quot;\nhttp://en.wikipedia.org/wiki/Leni_Riefenstahl&quot; rel=&quot;nofollow&quot; target=&quot;_NEW&quot;&gt;\nhttp://en.wikipedia.org/wiki/Leni_Riefenstahl&lt;/a&gt;\n\n &lt;a href=&quot;\nhttp://en.wikipedia.org/wiki/Das_Blaue_Licht&quot; rel=&quot;nofollow&quot; target=&quot;_NEW&quot;&gt;\nhttp://en.wikipedia.org/wiki/Das_Blaue_Licht&lt;/a&gt;\n\n\n\nSubtitles:\n\n &lt;a href=&quot;\nhttp://www.opensubtitles.org/en/search/imdbid-22694/sublanguageid-all&quot; rel=&quot;nofollow&quot; target=&quot;_NEW&quot;&gt;\nhttp://www.opensubtitles.org/en/search/imdbid-22694/sublanguageid-all&lt;/a&gt;\n\n\nDirector:\nLeni Riefenstahl\n\n\n\n        Leni Riefenstahl ... \tJunta\n\tMathias Wieman\t... \tVigo\n\tBeni FÃƒÂ¼hrer\t... \tTonio\n\tMax Holzboer\t... \tInnkeeper\n\tMartha Mair\t... \tLucia\n\n\n Video\n      Format : MPEG-4 Visual\n      Format settings, BVOP : Yes\n      Format settings, QPel : No\n      Format settings, GMC : No warppoints\n      Format settings, Matrix : Default (H.263)\n      Muxing mode : Packed bitstream\n      Codec ID : DX50\n      Codec ID/Hint : DivX 5\n      Duration : 1h 19mn\n      Bit rate : 856 Kbps\n      Width : 640 pixels\n      Height : 480 pixels\n      Display aspect ratio : 4/3\n      Frame rate : 25.000 fps\n      Resolution : 24 bits\n      Colorimetry : 4:2:0\n      Scan type : Progressive\n      Bits/(Pixel*Frame) : 0.111\n      Stream size : 486 MiB (86%)\n      Title : Video \n      Writing library : DivX 2682\n   Audio\n      Format : MPEG Audio\n      Format version : Version 1\n      Format profile : Layer 3\n      Codec ID : 55\n      Codec ID/Hint : MP3\n      Duration : 1h 19mn\n      Bit rate mode : Constant\n      Bit rate : 128 Kbps\n      Channel(s) : 2 channels\n      Sampling rate : 48.0 KHz\n      Resolution : 16 bits\n      Stream size : 72.7 MiB (13%)\n      Alignment : Split accross interleaves\n      Interleave, duration : 40 ms (1.00 video frame)\n      Interleave, preload duration : 500 ms\n      Title : Audio \n\n\nPlease seed at least as much as you D/L.\n=======================================\nThanks \n\nJohn\n","torrent":{"xt":"urn:btih:a4c3e33147d674872ad930655dd4aad305613a56","amp;dn":"Das+Blaue+Licht+%281932%29+Leni+Riefenstahl+Ger+%28Eng+subs%29","amp;tr":["udp%3A%2F%2Ftracker.openbittorrent.com%3A80","udp%3A%2F%2Fopen.demonii.com%3A1337","udp%3A%2F%2Ftracker.coppersurfer.tk%3A6969","udp%3A%2F%2Fexodus.desync.com%3A6969"],"infoHash":"a4c3e33147d674872ad930655dd4aad305613a56","infoHashBuffer":{"type":"Buffer","data":[164,195,227,49,71,214,116,135,42,217,48,101,93,212,170,211,5,97,58,86]},"announce":[],"urlList":[]}}